<?xml version="1.0" encoding="iso-8859-1"?>
<!-- Generator: Adobe Illustrator 19.0.0, SVG Export Plug-In . SVG Version: 6.00 Build 0)  -->
<svg version="1.1" id="Capa_1" xmlns="http://www.w3.org/2000/svg" xmlns:xlink="http://www.w3.org/1999/xlink" x="0px" y="0px"
	 viewBox="0 0 512.002 512.002" style="enable-background:new 0 0 512.002 512.002;" xml:space="preserve">
<g>
	<g>
		<path d="M511.884,196.995c-0.783-6.23-5.364-11.312-11.479-12.737l-51.31-11.954c-5.119-26.495-15.21-48.165-30.044-64.49
			c-20.976-23.084-50.612-34.788-88.086-34.788c-34.949,0-61.21,11.191-78.057,33.263c-21.265,27.861-21.353,66.23-18.466,90.957
			c-43.309-12.794-112.382-40.216-125.825-77.02c-2.107-5.768-7.516-9.669-13.655-9.847c-6.14-0.189-11.764,3.404-14.202,9.04
			c-19.074,44.106-18.733,91.348,0.99,136.619c2.718,6.239,5.629,12.037,8.573,17.348l-70.848-22.143
			c-4.826-1.509-10.086-0.484-13.994,2.725s-5.936,8.17-5.395,13.197c0.19,1.767,4.982,43.751,33.152,85.933
			c26.163,39.177,77.986,85.877,176.294,85.877c50.13,0,95.179-12.765,133.896-37.939c29.099-18.921,54.183-44.49,74.555-75.996
			c16.86-26.074,28.004-55.333,32.464-85.089l53.468-27.773C509.488,209.284,512.667,203.225,511.884,196.995z M429.665,216.941
			c-4.454,2.313-7.455,6.7-7.998,11.689c-3.034,27.893-13.02,55.599-28.876,80.121c-29.565,45.722-85.358,100.224-183.259,100.224
			c-67.799,0-118.5-24.078-150.691-71.566C46.707,319.51,39.504,301.39,35.32,287.626l88.568,27.682
			c6.57,2.056,13.7-0.631,17.284-6.511c3.583-5.881,2.702-13.447-2.137-18.346c-0.616-0.624-54.484-56.324-39.737-130.489
			c16.752,17.822,42.607,34.074,77.312,48.553c37.665,15.713,72.008,23.545,73.451,23.871c5.13,1.157,10.485-0.467,14.125-4.262
			c3.638-3.795,5.022-9.229,3.651-14.305c-0.155-0.575-15.228-57.796,8.965-89.39c11.028-14.401,28.744-21.402,54.161-21.402
			c51.836,0,81.172,26.41,89.681,80.729c0.145,0.929,0.273,1.858,0.402,2.788l0.021,0.152c0.851,6.151,5.406,11.142,11.455,12.551
			l21.543,5.019L429.665,216.941z"/>
	</g>
</g>
<g>
</g>
<g>
</g>
<g>
</g>
<g>
</g>
<g>
</g>
<g>
</g>
<g>
</g>
<g>
</g>
<g>
</g>
<g>
</g>
<g>
</g>
<g>
</g>
<g>
</g>
<g>
</g>
<g>
</g>
</svg>
